<?xml version="1.0" encoding="UTF-8" standalone="no"?>
<!-- Created with Inkscape (http://www.inkscape.org/) -->

<svg
   xmlns:dc="http://purl.org/dc/elements/1.1/"
   xmlns:cc="http://creativecommons.org/ns#"
   xmlns:rdf="http://www.w3.org/1999/02/22-rdf-syntax-ns#"
   xmlns:svg="http://www.w3.org/2000/svg"
   xmlns="http://www.w3.org/2000/svg"
   xmlns:sodipodi="http://sodipodi.sourceforge.net/DTD/sodipodi-0.dtd"
   xmlns:inkscape="http://www.inkscape.org/namespaces/inkscape"
   width="149.02106mm"
   height="32.618153mm"
   viewBox="0 0 149.02106 32.618153"
   version="1.1"
   id="svg8"
   inkscape:version="0.92.5 (2060ec1f9f, 2020-04-08)"
   sodipodi:docname="nt_banner.svg"
   inkscape:export-filename="/home/nffh8493/gitlab-orange/networktools/sphinx/_static/nt_banner.png"
   inkscape:export-xdpi="65.41143"
   inkscape:export-ydpi="65.41143">
  <defs
     id="defs2">
    <marker
       inkscape:stockid="Arrow1Lend"
       orient="auto"
       refY="0"
       refX="0"
       id="marker1222"
       style="overflow:visible"
       inkscape:isstock="true">
      <path
         id="path962"
         d="M 0,0 5,-5 -12.5,0 5,5 Z"
         style="fill:#00ac00;fill-opacity:1;fill-rule:evenodd;stroke:#00ac00;stroke-width:1.00000003pt;stroke-opacity:1"
         transform="matrix(-0.8,0,0,-0.8,-10,0)"
         inkscape:connector-curvature="0" />
    </marker>
    <marker
       inkscape:stockid="Arrow1Send"
       orient="auto"
       refY="0"
       refX="0"
       id="marker1358"
       style="overflow:visible"
       inkscape:isstock="true">
      <path
         id="path1356"
         d="M 0,0 5,-5 -12.5,0 5,5 Z"
         style="fill:#00ac00;fill-opacity:1;fill-rule:evenodd;stroke:#00ac00;stroke-width:1.00000003pt;stroke-opacity:1"
         transform="matrix(-0.2,0,0,-0.2,-1.2,0)"
         inkscape:connector-curvature="0" />
    </marker>
    <marker
       inkscape:stockid="Arrow1Mend"
       orient="auto"
       refY="0"
       refX="0"
       id="marker1354"
       style="overflow:visible"
       inkscape:isstock="true">
      <path
         id="path1352"
         d="M 0,0 5,-5 -12.5,0 5,5 Z"
         style="fill:#00ac00;fill-opacity:1;fill-rule:evenodd;stroke:#00ac00;stroke-width:1.00000003pt;stroke-opacity:1"
         transform="matrix(-0.4,0,0,-0.4,-4,0)"
         inkscape:connector-curvature="0" />
    </marker>
    <marker
       inkscape:stockid="Arrow1Send"
       orient="auto"
       refY="0"
       refX="0"
       id="marker1350"
       style="overflow:visible"
       inkscape:isstock="true">
      <path
         id="path1348"
         d="M 0,0 5,-5 -12.5,0 5,5 Z"
         style="fill:#04ac00;fill-opacity:1;fill-rule:evenodd;stroke:#04ac00;stroke-width:1.00000003pt;stroke-opacity:1"
         transform="matrix(-0.2,0,0,-0.2,-1.2,0)"
         inkscape:connector-curvature="0" />
    </marker>
    <marker
       inkscape:stockid="Arrow1Mend"
       orient="auto"
       refY="0"
       refX="0"
       id="marker1346"
       style="overflow:visible"
       inkscape:isstock="true">
      <path
         id="path1344"
         d="M 0,0 5,-5 -12.5,0 5,5 Z"
         style="fill:#04ac00;fill-opacity:1;fill-rule:evenodd;stroke:#04ac00;stroke-width:1.00000003pt;stroke-opacity:1"
         transform="matrix(-0.4,0,0,-0.4,-4,0)"
         inkscape:connector-curvature="0" />
    </marker>
    <marker
       inkscape:stockid="Legs"
       orient="auto"
       refY="0"
       refX="0"
       id="Legs"
       style="overflow:visible"
       inkscape:isstock="true">
      <g
         id="g1082"
         transform="scale(-0.7)"
         style="fill:#04ac00;fill-opacity:1;stroke:#04ac00;stroke-opacity:1">
        <g
           id="g1076"
           transform="matrix(0,-1,-1,0,20.70862,21.31391)"
           style="fill:#04ac00;fill-opacity:1;stroke:#04ac00;stroke-opacity:1">
          <path
             id="path1072"
             d="m 21.22125,20.67536 c -6.910151,4.721157 -2.454525,6.606844 -5.841071,13.443235"
             style="fill:#04ac00;fill-opacity:1;fill-rule:evenodd;stroke:#04ac00;stroke-width:1.00000003pt;stroke-opacity:1"
             inkscape:connector-curvature="0" />
          <path
             id="path1074"
             d="m 21.39811,20.54812 c -1.360509,8.347524 3.536072,8.76994 4.505041,13.824958"
             style="fill:#04ac00;fill-opacity:1;fill-rule:evenodd;stroke:#04ac00;stroke-width:1.00000003pt;stroke-opacity:1"
             inkscape:connector-curvature="0" />
        </g>
        <path
           id="path1078"
           d="m -14.09007,-6.7318716 -0.922168,4.043383 3.962751,-1.22307 z"
           style="fill:#04ac00;fill-opacity:1;fill-rule:evenodd;stroke:#04ac00;stroke-width:1.00000003pt;stroke-opacity:1"
           inkscape:connector-curvature="0" />
        <path
           id="path1080"
           d="m -15.215679,4.5567534 1.874127,3.699613 2.266874,-3.472855 z"
           style="fill:#04ac00;fill-opacity:1;fill-rule:evenodd;stroke:#04ac00;stroke-width:1.00000003pt;stroke-opacity:1"
           inkscape:connector-curvature="0" />
      </g>
    </marker>
    <marker
       inkscape:stockid="Scissors"
       orient="auto"
       refY="0"
       refX="0"
       id="Scissors"
       style="overflow:visible"
       inkscape:isstock="true">
      <path
         id="schere"
         d="M 9.0898857,-3.6061018 C 8.1198849,-4.7769976 6.3697607,-4.7358294 5.0623558,-4.2327734 l -8.2124046,3.0779029 c -2.3882933,-1.3067135 -4.7482873,-0.9325372 -4.7482873,-1.5687873 0,-0.4973164 0.4566662,-0.3883222 0.3883068,-1.6831941 -0.065635,-1.2432767 -1.3635771,-2.1630796 -2.5903987,-2.0816435 -1.227271,-0.00735 -2.499439,0.9331613 -2.510341,2.2300611 -0.09143,1.3063864 1.007209,2.5196896 2.306764,2.6052316 1.5223406,0.2266616 4.218258,-0.6955566 5.482945,1.57086006 -0.9422847,1.73825774 -2.6140244,1.74307674 -4.1255107,1.65607034 -1.2548743,-0.072235 -2.7620933,0.2873979 -3.3606483,1.5208605 -0.578367,1.1820862 -0.0112,2.8646022 1.316749,3.226412 1.3401912,0.4918277 3.1806689,-0.129711 3.4993722,-1.6707242 0.2456585,-1.187823 -0.5953659,-1.7459574 -0.2725074,-2.1771537 0.2436135,-0.32536 1.7907806,-0.1368452 4.5471053,-1.3748244 L 5.6763468,4.2330688 C 6.8000164,4.5467672 8.1730685,4.5362646 9.1684433,3.4313614 l -9.22008423,-3.48508362 z m -18.3078016,-1.900504 c 1.294559,0.7227998 1.1888392,2.6835702 -0.1564272,3.0632889 -1.2165179,0.423661 -2.7710269,-0.7589694 -2.3831779,-2.0774648 0.227148,-1.0818519 1.653387,-1.480632 2.5396051,-0.9858241 z m 0.056264,8.0173649 c 1.3508301,0.4988648 1.1214429,2.7844356 -0.2522207,3.091609 -0.9110594,0.3163391 -2.2135494,-0.1387976 -2.3056964,-1.2121394 -0.177609,-1.305055 1.356085,-2.4841482 2.5579171,-1.8794696 z"
         style="fill:#04ac00;fill-opacity:1;stroke:#04ac00;stroke-opacity:1"
         inkscape:connector-curvature="0" />
    </marker>
    <marker
       inkscape:stockid="Torso"
       orient="auto"
       refY="0"
       refX="0"
       id="Torso"
       style="overflow:visible"
       inkscape:isstock="true">
      <g
         id="g1099"
         transform="scale(0.7)"
         style="fill:#04ac00;fill-opacity:1;stroke:#04ac00;stroke-opacity:1">
        <path
           id="path1085"
           d="m -4.7792281,-3.239542 c 2.350374,0.3659393 5.30026732,1.9375477 5.03715532,3.62748546 C -0.00518779,2.0778819 -2.2126741,2.6176539 -4.5630471,2.2517169 -6.9134221,1.8857769 -8.521035,0.75201414 -8.257922,-0.93792336 -7.994809,-2.6278615 -7.1296041,-3.6054813 -4.7792281,-3.239542 Z"
           style="fill:#04ac00;fill-opacity:1;fill-rule:evenodd;stroke:#04ac00;stroke-width:1.25;stroke-opacity:1"
           inkscape:connector-curvature="0" />
        <path
           id="path1087"
           d="M 4.4598789,0.08866574 C -2.5564571,-4.378332 5.2248769,-3.9061806 -0.84829578,-8.7197331"
           style="fill:#04ac00;fill-opacity:1;fill-rule:evenodd;stroke:#04ac00;stroke-width:1.00000003pt;stroke-opacity:1"
           inkscape:connector-curvature="0" />
        <path
           id="path1089"
           d="M 4.9298719,0.05752074 C -1.3872731,1.7494689 1.8027579,5.4782079 -4.9448731,7.5462725"
           style="fill:#04ac00;fill-opacity:1;fill-rule:evenodd;stroke:#04ac00;stroke-width:1.00000003pt;stroke-opacity:1"
           inkscape:connector-curvature="0" />
        <rect
           id="rect1091"
           transform="matrix(0.527536,-0.849533,0.887668,0.460484,0,0)"
           y="-1.7408575"
           x="-10.391706"
           height="2.7608147"
           width="2.6366582"
           style="fill:#04ac00;fill-opacity:1;fill-rule:evenodd;stroke:#04ac00;stroke-width:1.00000003pt;stroke-opacity:1" />
        <rect
           id="rect1093"
           transform="matrix(0.671205,-0.741272,0.790802,0.612072,0,0)"
           y="-7.9629307"
           x="4.9587269"
           height="2.8614161"
           width="2.7327356"
           style="fill:#04ac00;fill-opacity:1;fill-rule:evenodd;stroke:#04ac00;stroke-width:1.00000003pt;stroke-opacity:1" />
        <path
           id="path1095"
           transform="matrix(0,-1.109517,1.109517,0,25.96648,19.71619)"
           d="m 16.779951,-28.685045 a 0.60731727,0.60731727 0 1 0 -1.214634,0 0.60731727,0.60731727 0 1 0 1.214634,0 z"
           style="fill:#04ac00;fill-opacity:1;fill-rule:evenodd;stroke:#04ac00;stroke-width:1.00000003pt;stroke-opacity:1"
           inkscape:connector-curvature="0" />
        <path
           id="path1097"
           transform="matrix(0,-1.109517,1.109517,0,26.8245,16.99126)"
           d="m 16.779951,-28.685045 a 0.60731727,0.60731727 0 1 0 -1.214634,0 0.60731727,0.60731727 0 1 0 1.214634,0 z"
           style="fill:#04ac00;fill-opacity:1;fill-rule:evenodd;stroke:#04ac00;stroke-width:1.00000003pt;stroke-opacity:1"
           inkscape:connector-curvature="0" />
      </g>
    </marker>
    <marker
       inkscape:stockid="Club"
       orient="auto"
       refY="0"
       refX="0"
       id="Club"
       style="overflow:visible"
       inkscape:isstock="true">
      <path
         id="path1102"
         d="m -1.5971367,-7.0977635 c -1.8892507,0 -3.426382,1.5371314 -3.426382,3.4263822 0,0.6566798 0.2383531,1.2269257 0.5594092,1.7481542 -0.038751,0.032111 -0.079672,0.058463 -0.1165436,0.093235 -0.6224234,-0.8549928 -1.5893983,-1.4451409 -2.7271199,-1.4451409 -1.8892515,-1e-7 -3.426382,1.5371314 -3.426382,3.42638214 0,1.88925076 1.5371305,3.42638216 3.426382,3.42638216 0.9934462,0 1.868619,-0.4420611 2.4940326,-1.1188187 -0.124687,0.3548915 -0.2097783,0.7214874 -0.2097783,1.1188187 0,1.8892506 1.5371313,3.4263822 3.426382,3.4263822 1.88925064,0 3.4263821,-1.5371316 3.4263821,-3.4263822 0,-0.7933959 -0.3155586,-1.4938285 -0.7691878,-2.0744763 C 2.4152718,1.7663868 3.7718375,2.2973711 4.7661444,3.8340272 4.0279463,3.0958289 3.5540908,1.7534117 3.5540908,-0.05852936 l -0.6293354,-0.04661745 0.5827179,-0.0233087 c 0,-1.81194109 0.4505466,-3.15435829 1.188745,-3.89255659 -0.9590906,1.4822308 -2.2571634,2.0263625 -3.5662345,2.3075635 0.4041964,-0.5619092 0.6992616,-1.213407 0.6992616,-1.9579327 0,-1.8892506 -1.53713146,-3.4263822 -3.4263821,-3.4263822 z"
         style="fill:#04ac00;fill-opacity:1;fill-rule:evenodd;stroke:#04ac00;stroke-width:0.7458791pt;stroke-opacity:1"
         transform="scale(0.6)"
         inkscape:connector-curvature="0" />
    </marker>
    <marker
       inkscape:stockid="RazorWire"
       id="RazorWire"
       refX="0"
       refY="0"
       orient="auto"
       style="overflow:visible"
       inkscape:isstock="true">
      <path
         id="path1105"
         transform="scale(0.8)"
         style="fill:#04ac00;fill-opacity:1;fill-rule:evenodd;stroke:#04ac00;stroke-width:0.10000001pt;stroke-opacity:1"
         d="m 0.02272727,-0.74009011 v 1.4375 L -7.7585227,3.0099099 H 10.678977 L 3.4914773,0.69740989 v -1.4375 L 10.741477,-2.8963401 H -7.7272727 Z"
         inkscape:connector-curvature="0" />
    </marker>
    <marker
       inkscape:stockid="ExperimentalArrow"
       orient="auto-start-reverse"
       refY="3"
       refX="5"
       id="ExperimentalArrow"
       inkscape:isstock="true">
      <path
         id="path1126"
         d="M 10,3 0,6 V 0 Z"
         style="fill:context-stroke;stroke:#04ac00;stroke-opacity:1"
         inkscape:connector-curvature="0" />
    </marker>
    <marker
       style="overflow:visible"
       inkscape:stockid="InfiniteLineEnd"
       id="InfiniteLineEnd"
       refX="0"
       refY="0"
       orient="auto"
       inkscape:isstock="true">
      <g
         id="g1114"
         style="fill:#04ac00;fill-opacity:1;stroke:#04ac00;stroke-opacity:1">
        <circle
           id="circle1108"
           r="0.80000001"
           cy="0"
           cx="3"
           style="fill:#04ac00;fill-opacity:1;stroke:#04ac00;stroke-opacity:1" />
        <circle
           id="circle1110"
           r="0.80000001"
           cy="0"
           cx="6.5"
           style="fill:#04ac00;fill-opacity:1;stroke:#04ac00;stroke-opacity:1" />
        <circle
           id="circle1112"
           r="0.80000001"
           cy="0"
           cx="10"
           style="fill:#04ac00;fill-opacity:1;stroke:#04ac00;stroke-opacity:1" />
      </g>
    </marker>
    <marker
       inkscape:stockid="Tail"
       orient="auto"
       refY="0"
       refX="0"
       id="Tail"
       style="overflow:visible"
       inkscape:isstock="true">
      <g
         id="g921"
         transform="scale(-1.2)"
         style="fill:#04ac00;fill-opacity:1;stroke:#04ac00;stroke-opacity:1">
        <path
           id="path909"
           d="M -3.8048674,-3.9585227 0.54352094,0"
           style="fill:#04ac00;fill-opacity:1;fill-rule:evenodd;stroke:#04ac00;stroke-width:0.80000001;stroke-linecap:round;stroke-opacity:1"
           inkscape:connector-curvature="0" />
        <path
           id="path911"
           d="M -1.2866832,-3.9585227 3.0617053,0"
           style="fill:#04ac00;fill-opacity:1;fill-rule:evenodd;stroke:#04ac00;stroke-width:0.80000001;stroke-linecap:round;stroke-opacity:1"
           inkscape:connector-curvature="0" />
        <path
           id="path913"
           d="M 1.3053582,-3.9585227 5.6537466,0"
           style="fill:#04ac00;fill-opacity:1;fill-rule:evenodd;stroke:#04ac00;stroke-width:0.80000001;stroke-linecap:round;stroke-opacity:1"
           inkscape:connector-curvature="0" />
        <path
           id="path915"
           d="M -3.8048674,4.1775838 0.54352094,0.21974226"
           style="fill:#04ac00;fill-opacity:1;fill-rule:evenodd;stroke:#04ac00;stroke-width:0.80000001;stroke-linecap:round;stroke-opacity:1"
           inkscape:connector-curvature="0" />
        <path
           id="path917"
           d="M -1.2866832,4.1775838 3.0617053,0.21974226"
           style="fill:#04ac00;fill-opacity:1;fill-rule:evenodd;stroke:#04ac00;stroke-width:0.80000001;stroke-linecap:round;stroke-opacity:1"
           inkscape:connector-curvature="0" />
        <path
           id="path919"
           d="M 1.3053582,4.1775838 5.6537466,0.21974226"
           style="fill:#04ac00;fill-opacity:1;fill-rule:evenodd;stroke:#04ac00;stroke-width:0.80000001;stroke-linecap:round;stroke-opacity:1"
           inkscape:connector-curvature="0" />
      </g>
    </marker>
    <marker
       inkscape:stockid="Arrow1Send"
       orient="auto"
       refY="0"
       refX="0"
       id="marker1305"
       style="overflow:visible"
       inkscape:isstock="true">
      <path
         id="path1303"
         d="M 0,0 5,-5 -12.5,0 5,5 Z"
         style="fill:#04ac00;fill-opacity:1;fill-rule:evenodd;stroke:#04ac00;stroke-width:1.00000003pt;stroke-opacity:1"
         transform="matrix(-0.2,0,0,-0.2,-1.2,0)"
         inkscape:connector-curvature="0" />
    </marker>
    <marker
       inkscape:stockid="EmptyTriangleOutS"
       orient="auto"
       refY="0"
       refX="0"
       id="EmptyTriangleOutS"
       style="overflow:visible"
       inkscape:isstock="true">
      <path
         id="path1039"
         d="M 5.77,0 -2.88,5 V -5 Z"
         style="fill:#ffffff;fill-rule:evenodd;stroke:#04ac00;stroke-width:1.00000003pt;stroke-opacity:1"
         transform="matrix(0.2,0,0,0.2,-0.6,0)"
         inkscape:connector-curvature="0" />
    </marker>
    <marker
       inkscape:stockid="EmptyTriangleOutL"
       orient="auto"
       refY="0"
       refX="0"
       id="EmptyTriangleOutL"
       style="overflow:visible"
       inkscape:isstock="true">
      <path
         id="path1033"
         d="M 5.77,0 -2.88,5 V -5 Z"
         style="fill:#ffffff;fill-rule:evenodd;stroke:#04ac00;stroke-width:1.00000003pt;stroke-opacity:1"
         transform="matrix(0.8,0,0,0.8,-4.8,0)"
         inkscape:connector-curvature="0" />
    </marker>
    <marker
       inkscape:stockid="TriangleOutS"
       orient="auto"
       refY="0"
       refX="0"
       id="marker1297"
       style="overflow:visible"
       inkscape:isstock="true">
      <path
         id="path1295"
         d="M 5.77,0 -2.88,5 V -5 Z"
         style="fill:#00ac00;fill-opacity:1;fill-rule:evenodd;stroke:#00ac00;stroke-width:1.00000003pt;stroke-opacity:1"
         transform="scale(0.2)"
         inkscape:connector-curvature="0" />
    </marker>
    <marker
       inkscape:stockid="TriangleInS"
       orient="auto"
       refY="0"
       refX="0"
       id="TriangleInS"
       style="overflow:visible"
       inkscape:isstock="true">
      <path
         id="path1012"
         d="M 5.77,0 -2.88,5 V -5 Z"
         style="fill:#00ac00;fill-opacity:1;fill-rule:evenodd;stroke:#00ac00;stroke-width:1.00000003pt;stroke-opacity:1"
         transform="scale(-0.2)"
         inkscape:connector-curvature="0" />
    </marker>
    <marker
       inkscape:stockid="TriangleOutS"
       orient="auto"
       refY="0"
       refX="0"
       id="marker1287"
       style="overflow:visible"
       inkscape:isstock="true">
      <path
         id="path1285"
         d="M 5.77,0 -2.88,5 V -5 Z"
         style="fill:#00ac00;fill-opacity:1;fill-rule:evenodd;stroke:#00ac00;stroke-width:1.00000003pt;stroke-opacity:1"
         transform="scale(0.2)"
         inkscape:connector-curvature="0" />
    </marker>
    <marker
       inkscape:stockid="TriangleOutS"
       orient="auto"
       refY="0"
       refX="0"
       id="TriangleOutS"
       style="overflow:visible"
       inkscape:isstock="true">
      <path
         id="path1021"
         d="M 5.77,0 -2.88,5 V -5 Z"
         style="fill:#04ac00;fill-opacity:1;fill-rule:evenodd;stroke:#04ac00;stroke-width:1.00000003pt;stroke-opacity:1"
         transform="scale(0.2)"
         inkscape:connector-curvature="0" />
    </marker>
    <marker
       inkscape:stockid="TriangleOutM"
       orient="auto"
       refY="0"
       refX="0"
       id="TriangleOutM"
       style="overflow:visible"
       inkscape:isstock="true">
      <path
         id="path1018"
         d="M 5.77,0 -2.88,5 V -5 Z"
         style="fill:#04ac00;fill-opacity:1;fill-rule:evenodd;stroke:#04ac00;stroke-width:1.00000003pt;stroke-opacity:1"
         transform="scale(0.4)"
         inkscape:connector-curvature="0" />
    </marker>
    <marker
       inkscape:stockid="Arrow1Send"
       orient="auto"
       refY="0"
       refX="0"
       id="marker1279"
       style="overflow:visible"
       inkscape:isstock="true">
      <path
         id="path1277"
         d="M 0,0 5,-5 -12.5,0 5,5 Z"
         style="fill:#04ac00;fill-opacity:1;fill-rule:evenodd;stroke:#04ac00;stroke-width:1.00000003pt;stroke-opacity:1"
         transform="matrix(-0.2,0,0,-0.2,-1.2,0)"
         inkscape:connector-curvature="0" />
    </marker>
    <marker
       inkscape:stockid="Arrow2Mend"
       orient="auto"
       refY="0"
       refX="0"
       id="Arrow2Mend"
       style="overflow:visible"
       inkscape:isstock="true">
      <path
         id="path900"
         style="fill:#04ac00;fill-opacity:1;fill-rule:evenodd;stroke:#04ac00;stroke-width:0.625;stroke-linejoin:round;stroke-opacity:1"
         d="M 8.7185878,4.0337352 -2.2072895,0.01601326 8.7185884,-4.0017078 c -1.7454984,2.3720609 -1.7354408,5.6174519 -6e-7,8.035443 z"
         transform="scale(-0.6)"
         inkscape:connector-curvature="0" />
    </marker>
    <marker
       inkscape:stockid="Arrow1Sstart"
       orient="auto"
       refY="0"
       refX="0"
       id="marker1231"
       style="overflow:visible"
       inkscape:isstock="true">
      <path
         id="path1229"
         d="M 0,0 5,-5 -12.5,0 5,5 Z"
         style="fill:#00ac00;fill-opacity:1;fill-rule:evenodd;stroke:#00ac00;stroke-width:1.00000003pt;stroke-opacity:1"
         transform="matrix(0.2,0,0,0.2,1.2,0)"
         inkscape:connector-curvature="0" />
    </marker>
    <marker
       inkscape:stockid="Arrow1Mstart"
       orient="auto"
       refY="0"
       refX="0"
       id="marker1227"
       style="overflow:visible"
       inkscape:isstock="true">
      <path
         id="path1225"
         d="M 0,0 5,-5 -12.5,0 5,5 Z"
         style="fill:#00ff00;fill-opacity:1;fill-rule:evenodd;stroke:#00ff00;stroke-width:1.00000003pt;stroke-opacity:1"
         transform="matrix(0.4,0,0,0.4,4,0)"
         inkscape:connector-curvature="0" />
    </marker>
    <marker
       inkscape:stockid="Arrow1Sstart"
       orient="auto"
       refY="0"
       refX="0"
       id="marker1223"
       style="overflow:visible"
       inkscape:isstock="true">
      <path
         id="path1221"
         d="M 0,0 5,-5 -12.5,0 5,5 Z"
         style="fill:#00ff00;fill-opacity:1;fill-rule:evenodd;stroke:#00ff00;stroke-width:1.00000003pt;stroke-opacity:1"
         transform="matrix(0.2,0,0,0.2,1.2,0)"
         inkscape:connector-curvature="0" />
    </marker>
    <marker
       inkscape:stockid="Arrow1Send"
       orient="auto"
       refY="0"
       refX="0"
       id="marker1219"
       style="overflow:visible"
       inkscape:isstock="true">
      <path
         id="path1217"
         d="M 0,0 5,-5 -12.5,0 5,5 Z"
         style="fill:#00ff00;fill-opacity:1;fill-rule:evenodd;stroke:#00ff00;stroke-width:1.00000003pt;stroke-opacity:1"
         transform="matrix(-0.2,0,0,-0.2,-1.2,0)"
         inkscape:connector-curvature="0" />
    </marker>
    <marker
       inkscape:stockid="Arrow1Send"
       orient="auto"
       refY="0"
       refX="0"
       id="marker1215"
       style="overflow:visible"
       inkscape:isstock="true">
      <path
         id="path1213"
         d="M 0,0 5,-5 -12.5,0 5,5 Z"
         style="fill:#00ff00;fill-opacity:1;fill-rule:evenodd;stroke:#00ff00;stroke-width:1.00000003pt;stroke-opacity:1"
         transform="matrix(-0.2,0,0,-0.2,-1.2,0)"
         inkscape:connector-curvature="0" />
    </marker>
    <marker
       inkscape:stockid="Arrow1Send"
       orient="auto"
       refY="0"
       refX="0"
       id="Arrow1Send"
       style="overflow:visible"
       inkscape:isstock="true">
      <path
         id="path888"
         d="M 0,0 5,-5 -12.5,0 5,5 Z"
         style="fill:#ffffff;fill-opacity:1;fill-rule:evenodd;stroke:#04ac00;stroke-width:1.00000003pt;stroke-opacity:1"
         transform="matrix(-0.2,0,0,-0.2,-1.2,0)"
         inkscape:connector-curvature="0" />
    </marker>
    <marker
       inkscape:stockid="Arrow1Mend"
       orient="auto"
       refY="0"
       refX="0"
       id="marker1209"
       style="overflow:visible"
       inkscape:isstock="true">
      <path
         id="path1207"
         d="M 0,0 5,-5 -12.5,0 5,5 Z"
         style="fill:#00ff00;fill-opacity:1;fill-rule:evenodd;stroke:#00ff00;stroke-width:1.00000003pt;stroke-opacity:1"
         transform="matrix(-0.4,0,0,-0.4,-4,0)"
         inkscape:connector-curvature="0" />
    </marker>
    <marker
       inkscape:stockid="Arrow1Lstart"
       orient="auto"
       refY="0"
       refX="0"
       id="marker1205"
       style="overflow:visible"
       inkscape:isstock="true">
      <path
         id="path1203"
         d="M 0,0 5,-5 -12.5,0 5,5 Z"
         style="fill:#00ff00;fill-opacity:1;fill-rule:evenodd;stroke:#00ff00;stroke-width:1.00000003pt;stroke-opacity:1"
         transform="matrix(0.8,0,0,0.8,10,0)"
         inkscape:connector-curvature="0" />
    </marker>
    <marker
       inkscape:stockid="Arrow1Lstart"
       orient="auto"
       refY="0"
       refX="0"
       id="marker1201"
       style="overflow:visible"
       inkscape:isstock="true">
      <path
         id="path1199"
         d="M 0,0 5,-5 -12.5,0 5,5 Z"
         style="fill:#00ff00;fill-opacity:1;fill-rule:evenodd;stroke:#00ff00;stroke-width:1.00000003pt;stroke-opacity:1"
         transform="matrix(0.8,0,0,0.8,10,0)"
         inkscape:connector-curvature="0" />
    </marker>
    <marker
       inkscape:stockid="Arrow1Sstart"
       orient="auto"
       refY="0"
       refX="0"
       id="marker1167"
       style="overflow:visible"
       inkscape:isstock="true">
      <path
         id="path1165"
         d="M 0,0 5,-5 -12.5,0 5,5 Z"
         style="fill:#00f800;fill-opacity:1;fill-rule:evenodd;stroke:#00f800;stroke-width:1.00000003pt;stroke-opacity:1"
         transform="matrix(0.2,0,0,0.2,1.2,0)"
         inkscape:connector-curvature="0" />
    </marker>
    <marker
       inkscape:stockid="Arrow1Sstart"
       orient="auto"
       refY="0"
       refX="0"
       id="Arrow1Sstart"
       style="overflow:visible"
       inkscape:isstock="true">
      <path
         id="path885"
         d="M 0,0 5,-5 -12.5,0 5,5 Z"
         style="fill:#00f800;fill-opacity:1;fill-rule:evenodd;stroke:#00f800;stroke-width:1.00000003pt;stroke-opacity:1"
         transform="matrix(0.2,0,0,0.2,1.2,0)"
         inkscape:connector-curvature="0" />
    </marker>
    <marker
       inkscape:stockid="Arrow1Mstart"
       orient="auto"
       refY="0"
       refX="0"
       id="Arrow1Mstart"
       style="overflow:visible"
       inkscape:isstock="true">
      <path
         id="path879"
         d="M 0,0 5,-5 -12.5,0 5,5 Z"
         style="fill:#00f800;fill-opacity:1;fill-rule:evenodd;stroke:#00f800;stroke-width:1.00000003pt;stroke-opacity:1"
         transform="matrix(0.4,0,0,0.4,4,0)"
         inkscape:connector-curvature="0" />
    </marker>
    <marker
       inkscape:stockid="Arrow1Mend"
       orient="auto"
       refY="0"
       refX="0"
       id="Arrow1Mend"
       style="overflow:visible"
       inkscape:isstock="true">
      <path
         id="path882"
         d="M 0,0 5,-5 -12.5,0 5,5 Z"
         style="fill:#00f800;fill-opacity:1;fill-rule:evenodd;stroke:#00f800;stroke-width:1.00000003pt;stroke-opacity:1"
         transform="matrix(-0.4,0,0,-0.4,-4,0)"
         inkscape:connector-curvature="0" />
    </marker>
    <marker
       inkscape:stockid="Arrow1Lstart"
       orient="auto"
       refY="0"
       refX="0"
       id="marker1157"
       style="overflow:visible"
       inkscape:isstock="true">
      <path
         id="path1155"
         d="M 0,0 5,-5 -12.5,0 5,5 Z"
         style="fill:#00f800;fill-opacity:1;fill-rule:evenodd;stroke:#00f800;stroke-width:1.00000003pt;stroke-opacity:1"
         transform="matrix(0.8,0,0,0.8,10,0)"
         inkscape:connector-curvature="0" />
    </marker>
    <marker
       inkscape:stockid="Arrow1Lstart"
       orient="auto"
       refY="0"
       refX="0"
       id="marker1153"
       style="overflow:visible"
       inkscape:isstock="true">
      <path
         id="path1151"
         d="M 0,0 5,-5 -12.5,0 5,5 Z"
         style="fill:#00f800;fill-opacity:1;fill-rule:evenodd;stroke:#00f800;stroke-width:1.00000003pt;stroke-opacity:1"
         transform="matrix(0.8,0,0,0.8,10,0)"
         inkscape:connector-curvature="0" />
    </marker>
    <marker
       inkscape:stockid="Arrow1Lstart"
       orient="auto"
       refY="0"
       refX="0"
       id="Arrow1Lstart"
       style="overflow:visible"
       inkscape:isstock="true">
      <path
         id="path873"
         d="M 0,0 5,-5 -12.5,0 5,5 Z"
         style="fill:#00f800;fill-opacity:1;fill-rule:evenodd;stroke:#00f800;stroke-width:1.00000003pt;stroke-opacity:1"
         transform="matrix(0.8,0,0,0.8,10,0)"
         inkscape:connector-curvature="0" />
    </marker>
    <marker
       inkscape:stockid="Arrow2Lend"
       orient="auto"
       refY="0"
       refX="0"
       id="marker1147"
       style="overflow:visible"
       inkscape:isstock="true">
      <path
         id="path1145"
         style="fill:#00f800;fill-opacity:1;fill-rule:evenodd;stroke:#00f800;stroke-width:0.625;stroke-linejoin:round;stroke-opacity:1"
         d="M 8.7185878,4.0337352 -2.2072895,0.01601326 8.7185884,-4.0017078 c -1.7454984,2.3720609 -1.7354408,5.6174519 -6e-7,8.035443 z"
         transform="matrix(-1.1,0,0,-1.1,-1.1,0)"
         inkscape:connector-curvature="0" />
    </marker>
    <marker
       inkscape:stockid="Arrow1Lend"
       orient="auto"
       refY="0"
       refX="0"
       id="marker1143"
       style="overflow:visible"
       inkscape:isstock="true">
      <path
         id="path1141"
         d="M 0,0 5,-5 -12.5,0 5,5 Z"
         style="fill:#00f800;fill-opacity:1;fill-rule:evenodd;stroke:#00f800;stroke-width:1.00000003pt;stroke-opacity:1"
         transform="matrix(-0.8,0,0,-0.8,-10,0)"
         inkscape:connector-curvature="0" />
    </marker>
    <marker
       inkscape:stockid="Arrow2Lstart"
       orient="auto"
       refY="0"
       refX="0"
       id="Arrow2Lstart"
       style="overflow:visible"
       inkscape:isstock="true">
      <path
         id="path891"
         style="fill:#00f800;fill-opacity:1;fill-rule:evenodd;stroke:#00f800;stroke-width:0.625;stroke-linejoin:round;stroke-opacity:1"
         d="M 8.7185878,4.0337352 -2.2072895,0.01601326 8.7185884,-4.0017078 c -1.7454984,2.3720609 -1.7354408,5.6174519 -6e-7,8.035443 z"
         transform="matrix(1.1,0,0,1.1,1.1,0)"
         inkscape:connector-curvature="0" />
    </marker>
    <marker
       inkscape:stockid="Arrow1Lend"
       orient="auto"
       refY="0"
       refX="0"
       id="Arrow1Lend"
       style="overflow:visible"
       inkscape:isstock="true">
      <path
         id="path876"
         d="M 0,0 5,-5 -12.5,0 5,5 Z"
         style="fill:#00f800;fill-opacity:1;fill-rule:evenodd;stroke:#00f800;stroke-width:1.00000003pt;stroke-opacity:1"
         transform="matrix(-0.8,0,0,-0.8,-10,0)"
         inkscape:connector-curvature="0" />
    </marker>
    <marker
       inkscape:stockid="Arrow2Lend"
       orient="auto"
       refY="0"
       refX="0"
       id="Arrow2Lend"
       style="overflow:visible"
       inkscape:isstock="true">
      <path
         id="path894"
         style="fill:#00f800;fill-opacity:1;fill-rule:evenodd;stroke:#00f800;stroke-width:0.625;stroke-linejoin:round;stroke-opacity:1"
         d="M 8.7185878,4.0337352 -2.2072895,0.01601326 8.7185884,-4.0017078 c -1.7454984,2.3720609 -1.7354408,5.6174519 -6e-7,8.035443 z"
         transform="matrix(-1.1,0,0,-1.1,-1.1,0)"
         inkscape:connector-curvature="0" />
    </marker>
    <marker
       inkscape:stockid="Arrow1Send"
       orient="auto"
       refY="0"
       refX="0"
       id="Arrow1Send-2"
       style="overflow:visible"
       inkscape:isstock="true">
      <path
         inkscape:connector-curvature="0"
         id="path888-7"
         d="M 0,0 5,-5 -12.5,0 5,5 Z"
         style="fill:#00ac00;fill-opacity:1;fill-rule:evenodd;stroke:#00ac00;stroke-width:1.00000003pt;stroke-opacity:1"
         transform="matrix(-0.2,0,0,-0.2,-1.2,0)" />
    </marker>
  </defs>
  <sodipodi:namedview
     id="base"
     pagecolor="#ffffff"
     bordercolor="#666666"
     borderopacity="1.0"
     inkscape:pageopacity="0.0"
     inkscape:pageshadow="2"
     inkscape:zoom="1.979899"
     inkscape:cx="203.55244"
     inkscape:cy="34.647148"
     inkscape:document-units="mm"
     inkscape:current-layer="layer2"
     showgrid="true"
     showguides="true"
     inkscape:snap-global="true"
     inkscape:snap-bbox="true"
     inkscape:snap-bbox-midpoints="true"
     inkscape:window-width="2560"
     inkscape:window-height="1403"
     inkscape:window-x="1080"
     inkscape:window-y="291"
     inkscape:window-maximized="1"
     showborder="true"
     inkscape:showpageshadow="true"
     borderlayer="false"
     units="mm"
     width="419mm"
     fit-margin-top="3"
     fit-margin-left="3"
     fit-margin-right="3"
     fit-margin-bottom="3"
     inkscape:snap-midpoints="false">
    <inkscape:grid
       type="xygrid"
       id="grid4543"
       originx="-10.810718"
       originy="-231.73782" />
  </sodipodi:namedview>
  <metadata
     id="metadata5">
    <rdf:RDF>
      <cc:Work
         rdf:about="">
        <dc:format>image/svg+xml</dc:format>
        <dc:type
           rdf:resource="http://purl.org/dc/dcmitype/StillImage" />
        <dc:title></dc:title>
      </cc:Work>
    </rdf:RDF>
  </metadata>
  <g
     inkscape:groupmode="layer"
     id="layer2"
     inkscape:label="Layer 2"
     transform="translate(-10.810715,-32.64405)">
    <path
       style="fill:none;stroke:#030303;stroke-width:1;stroke-linecap:butt;stroke-linejoin:miter;stroke-miterlimit:4;stroke-dasharray:none;stroke-dashoffset:0;stroke-opacity:1"
       d="M 19.84375,57.552083 H 33.072917"
       id="path4593"
       inkscape:connector-curvature="0" />
    <path
       style="fill:#50be87;fill-opacity:1;stroke:#000000;stroke-width:3;stroke-linecap:butt;stroke-linejoin:miter;stroke-miterlimit:4;stroke-dasharray:none;stroke-opacity:1"
       d="M 35.71875,57.552083 25.135417,40.354167"
       id="path4595"
       inkscape:connector-curvature="0"
       sodipodi:nodetypes="cc" />
    <path
       style="fill:#50be87;fill-opacity:1;stroke:#000000;stroke-width:3;stroke-linecap:butt;stroke-linejoin:miter;stroke-miterlimit:4;stroke-dasharray:none;stroke-dashoffset:0;stroke-opacity:0.99288252;paint-order:normal"
       d="M 18.520833,57.552083 25.135417,40.354167"
       id="path4593-5"
       inkscape:connector-curvature="0"
       sodipodi:nodetypes="cc" />
    <path
       style="fill:none;stroke:#050505;stroke-width:1;stroke-linecap:butt;stroke-linejoin:miter;stroke-miterlimit:4;stroke-dasharray:none;stroke-dashoffset:0;stroke-opacity:1"
       d="m 25.135417,40.354167 h 15.875"
       id="path4593-56"
       inkscape:connector-curvature="0"
       sodipodi:nodetypes="cc" />
    <path
       style="fill:#50be87;fill-opacity:1;stroke:#000100;stroke-width:3;stroke-linecap:butt;stroke-linejoin:miter;stroke-miterlimit:4;stroke-dasharray:none;stroke-dashoffset:0;stroke-opacity:1"
       d="M 35.71875,57.552083 42.333333,40.354167"
       id="path4593-5-0"
       inkscape:connector-curvature="0"
       sodipodi:nodetypes="cc" />
    <text
       xml:space="preserve"
       style="font-style:normal;font-weight:normal;font-size:10.58333302px;line-height:1.25;font-family:sans-serif;letter-spacing:0px;word-spacing:0px;fill:#000000;fill-opacity:1;stroke:none;stroke-width:0.26458332"
       x="48.005344"
       y="54.60445"
       id="text5200"><tspan
         sodipodi:role="line"
         id="tspan5198"
         x="48.005344"
         y="54.60445"
         style="font-style:normal;font-variant:normal;font-weight:normal;font-stretch:normal;font-size:16.93333244px;font-family:sans-serif;-inkscape-font-specification:'sans-serif, Normal';font-variant-ligatures:normal;font-variant-caps:normal;font-variant-numeric:normal;font-feature-settings:normal;text-align:start;writing-mode:lr-tb;text-anchor:start;stroke-width:0.26458332">networktools</tspan></text>
  </g>
  <g
     inkscape:label="Layer 1"
     inkscape:groupmode="layer"
     id="layer1"
     transform="translate(-10.810715,-32.64405)">
    <ellipse
       id="path3717"
       cx="25.135416"
       cy="40.354168"
       style="opacity:1;fill:#4bb4e6;fill-opacity:1;stroke:#000000;stroke-width:1.10000002;stroke-miterlimit:4;stroke-dasharray:none;stroke-opacity:1"
       rx="4.16012"
       ry="4.1601176" />
    <ellipse
       id="path3717-3"
       cx="42.333332"
       cy="40.354168"
       style="opacity:1;fill:#ff7900;fill-opacity:1;stroke:#000000;stroke-width:1.10000002;stroke-miterlimit:4;stroke-dasharray:none;stroke-opacity:1"
       rx="4.1601191"
       ry="4.1601171" />
    <circle
       id="path3717-3-6"
       cx="18.520834"
       cy="57.552082"
       r="4.1601191"
       style="opacity:1;fill:#a885d8;fill-opacity:1;stroke:#000000;stroke-width:1.10000002;stroke-miterlimit:4;stroke-dasharray:none;stroke-opacity:1" />
    <ellipse
       id="path3717-36"
       cx="35.71875"
       cy="57.552082"
       style="opacity:1;fill:#50be87;fill-opacity:1;stroke:#000000;stroke-width:1.10000002;stroke-miterlimit:4;stroke-dasharray:none;stroke-opacity:1"
       rx="4.1601186"
       ry="4.1601191" />
  </g>
</svg>
